<svg xmlns="http://www.w3.org/2000/svg" width="40" height="40" viewBox="0 0 40 40" fill="none">
<path d="M28.9547 11.6927L13.8567 37.7815C12.3268 40.4253 8.93835 39.6809 8.0438 36.4948L0.50607 9.6982C0.299921 9.1324 0.219103 8.52058 0.270322 7.91335C0.321546 7.30627 0.503328 6.72131 0.800588 6.20711C1.09785 5.69305 1.50201 5.26443 1.97953 4.95712C2.45705 4.6498 2.99416 4.47243 3.54627 4.43983L26.1809 5.1519C28.8676 5.23624 30.4847 9.04888 28.9547 11.6927Z" fill="#1DACE3"/>
<path d="M33.1481 19.6126L7.0376 35.6621C6.44027 36.029 5.76264 36.2068 5.07948 36.1759C4.39632 36.1451 3.73415 35.9067 3.16601 35.4872C2.59787 35.0677 2.14582 34.4833 1.8597 33.7984C1.57359 33.1136 1.46454 32.3549 1.54459 31.606L4.53232 3.65485C4.60112 3.0114 4.80744 2.39507 5.1343 1.85654C5.46118 1.31814 5.89927 0.872983 6.41255 0.557576C6.92584 0.242311 7.49966 0.0657612 8.08684 0.0427201C8.67401 0.0196795 9.25778 0.150668 9.79011 0.424792L32.9131 12.3335C33.531 12.6534 34.057 13.155 34.4332 13.7832C34.8095 14.4113 35.0213 15.1416 35.0456 15.8939C35.0699 16.6462 34.9057 17.3914 34.571 18.0474C34.2361 18.7035 33.7438 19.245 33.1481 19.6126Z" fill="#FB6908"/>
<path d="M4.44415 4.47258L2.95471 18.406L7.69561 35.2538L19.5212 27.9874L28.9547 11.6927C29.1604 11.3333 29.3142 10.9408 29.4105 10.5293L18.5041 4.91217L4.44415 4.47258Z" fill="#001A49"/>
</svg>