<svg width="176" height="41" viewBox="0 0 176 41" fill="none" xmlns="http://www.w3.org/2000/svg">
<path d="M29.0942 12.6927L13.9961 38.7815C12.4662 41.4253 9.07781 40.6809 8.18326 37.4948L0.645529 10.6982C0.439379 10.1324 0.358561 9.5206 0.409781 8.91337C0.461005 8.30629 0.642787 7.72133 0.940046 7.20713C1.23731 6.69307 1.64147 6.26445 2.11899 5.95713C2.59651 5.64982 3.13361 5.47245 3.68573 5.43985L26.3204 6.15192C29.007 6.23625 30.6241 10.0489 29.0942 12.6927Z" fill="#1DACE3"/>
<path d="M33.2876 20.6126L7.17705 36.6621C6.57972 37.029 5.90209 37.2068 5.21893 37.176C4.53577 37.1451 3.8736 36.9068 3.30546 36.4873C2.73732 36.0677 2.28527 35.4833 1.99915 34.7985C1.71304 34.1136 1.60399 33.3549 1.68404 32.606L4.67177 4.65488C4.74057 4.01144 4.94689 3.39511 5.27375 2.85657C5.60063 2.31818 6.03872 1.87302 6.55201 1.55761C7.06529 1.24234 7.63911 1.06579 8.22629 1.04275C8.81346 1.01972 9.39723 1.1507 9.92957 1.42483L33.0526 13.3336C33.6705 13.6535 34.1965 14.1551 34.5726 14.7832C34.9489 15.4114 35.1607 16.1416 35.185 16.894C35.2093 17.6463 35.0451 18.3914 34.7104 19.0475C34.3756 19.7036 33.8833 20.2451 33.2876 20.6126Z" fill="#FB6908"/>
<path d="M4.58366 5.47257L3.09422 19.406L7.83511 36.2538L19.6607 28.9874L29.0942 12.6927C29.2999 12.3333 29.4537 11.9408 29.55 11.5293L18.6436 5.91216L4.58366 5.47257Z" fill="#001A49"/>
<path d="M65.0596 28.7883L65.0071 19.0559L60.2852 26.9783H57.9767L53.281 19.3182V28.7883H48.4803V10.4253H52.7563L59.2096 21.0234L65.5055 10.4253H69.7815L69.834 28.7883H65.0596ZM80.4085 29.0244C78.887 29.0244 77.5141 28.7096 76.2899 28.08C75.0657 27.4505 74.1038 26.576 73.4043 25.4567C72.7222 24.3375 72.3812 23.0695 72.3812 21.653C72.3812 20.2539 72.7222 18.9947 73.4043 17.8754C74.1038 16.7562 75.057 15.8905 76.2637 15.2784C77.4879 14.6488 78.8695 14.334 80.4085 14.334C81.9475 14.334 83.3291 14.6488 84.5533 15.2784C85.7775 15.8905 86.7306 16.7562 87.4127 17.8754C88.0947 18.9772 88.4358 20.2364 88.4358 21.653C88.4358 23.0695 88.0947 24.3375 87.4127 25.4567C86.7306 26.576 85.7775 27.4505 84.5533 28.08C83.3291 28.7096 81.9475 29.0244 80.4085 29.0244ZM80.4085 25.0633C81.2829 25.0633 82 24.7659 82.5596 24.1713C83.1192 23.5592 83.3991 22.7198 83.3991 21.653C83.3991 20.6037 83.1192 19.7817 82.5596 19.1871C82 18.5925 81.2829 18.2952 80.4085 18.2952C79.5341 18.2952 78.817 18.5925 78.2574 19.1871C77.6978 19.7817 77.4179 20.6037 77.4179 21.653C77.4179 22.7198 77.6978 23.5592 78.2574 24.1713C78.817 24.7659 79.5341 25.0633 80.4085 25.0633ZM97.88 29.0244C96.3585 29.0244 94.9857 28.7096 93.7615 28.08C92.5373 27.4505 91.5754 26.576 90.8759 25.4567C90.1938 24.3375 89.8528 23.0695 89.8528 21.653C89.8528 20.2539 90.1938 18.9947 90.8759 17.8754C91.5754 16.7562 92.5285 15.8905 93.7352 15.2784C94.9594 14.6488 96.341 14.334 97.88 14.334C99.419 14.334 100.801 14.6488 102.025 15.2784C103.249 15.8905 104.202 16.7562 104.884 17.8754C105.566 18.9772 105.907 20.2364 105.907 21.653C105.907 23.0695 105.566 24.3375 104.884 25.4567C104.202 26.576 103.249 27.4505 102.025 28.08C100.801 28.7096 99.419 29.0244 97.88 29.0244ZM97.88 25.0633C98.7545 25.0633 99.4715 24.7659 100.031 24.1713C100.591 23.5592 100.871 22.7198 100.871 21.653C100.871 20.6037 100.591 19.7817 100.031 19.1871C99.4715 18.5925 98.7545 18.2952 97.88 18.2952C97.0056 18.2952 96.2886 18.5925 95.7289 19.1871C95.1693 19.7817 94.8895 20.6037 94.8895 21.653C94.8895 22.7198 95.1693 23.5592 95.7289 24.1713C96.2886 24.7659 97.0056 25.0633 97.88 25.0633ZM117.476 14.334C119.243 14.334 120.659 14.8586 121.726 15.908C122.81 16.9573 123.353 18.54 123.353 20.6561V28.7883H118.368V21.4693C118.368 19.5281 117.59 18.5575 116.034 18.5575C115.177 18.5575 114.486 18.8373 113.961 19.3969C113.454 19.9566 113.2 20.796 113.2 21.9153V28.7883H108.216V14.5701H112.964V16.1178C113.524 15.5407 114.189 15.1035 114.958 14.8062C115.728 14.4914 116.567 14.334 117.476 14.334ZM136.293 28.2112C135.873 28.4735 135.357 28.6747 134.745 28.8146C134.151 28.9545 133.512 29.0244 132.83 29.0244C130.977 29.0244 129.551 28.5697 128.554 27.6603C127.557 26.7509 127.059 25.3955 127.059 23.5942V18.8198H124.987V15.0947H127.059V11.3959H132.043V15.0947H135.296V18.8198H132.043V23.5417C132.043 24.0489 132.174 24.4512 132.437 24.7485C132.717 25.0283 133.084 25.1682 133.539 25.1682C134.116 25.1682 134.623 25.0195 135.06 24.7222L136.293 28.2112ZM144.941 29.0244C143.419 29.0244 142.046 28.7096 140.822 28.08C139.598 27.4505 138.636 26.576 137.936 25.4567C137.254 24.3375 136.913 23.0695 136.913 21.653C136.913 20.2539 137.254 18.9947 137.936 17.8754C138.636 16.7562 139.589 15.8905 140.796 15.2784C142.02 14.6488 143.402 14.334 144.941 14.334C146.48 14.334 147.861 14.6488 149.085 15.2784C150.31 15.8905 151.263 16.7562 151.945 17.8754C152.627 18.9772 152.968 20.2364 152.968 21.653C152.968 23.0695 152.627 24.3375 151.945 25.4567C151.263 26.576 150.31 27.4505 149.085 28.08C147.861 28.7096 146.48 29.0244 144.941 29.0244ZM144.941 25.0633C145.815 25.0633 146.532 24.7659 147.092 24.1713C147.651 23.5592 147.931 22.7198 147.931 21.653C147.931 20.6037 147.651 19.7817 147.092 19.1871C146.532 18.5925 145.815 18.2952 144.941 18.2952C144.066 18.2952 143.349 18.5925 142.789 19.1871C142.23 19.7817 141.95 20.6037 141.95 21.653C141.95 22.7198 142.23 23.5592 142.789 24.1713C143.349 24.7659 144.066 25.0633 144.941 25.0633ZM172.984 10.4253V28.7883H168.708L160.602 19.0034V28.7883H155.513V10.4253H159.789L167.895 20.2102V10.4253H172.984Z" fill="white"/>
</svg>
