<svg width="173" height="40" viewBox="0 0 173 40" fill="none" xmlns="http://www.w3.org/2000/svg">
<path d="M28.9547 11.6927L13.8567 37.7815C12.3268 40.4253 8.93835 39.6809 8.0438 36.4948L0.50607 9.6982C0.299921 9.1324 0.219103 8.52058 0.270322 7.91335C0.321546 7.30627 0.503328 6.72131 0.800588 6.20711C1.09785 5.69305 1.50201 5.26443 1.97953 4.95712C2.45705 4.6498 2.99416 4.47243 3.54627 4.43983L26.1809 5.1519C28.8676 5.23624 30.4847 9.04888 28.9547 11.6927Z" fill="#1DACE3"/>
<path d="M33.1481 19.6126L7.0376 35.6621C6.44027 36.029 5.76264 36.2068 5.07948 36.1759C4.39632 36.1451 3.73415 35.9067 3.16601 35.4872C2.59787 35.0677 2.14582 34.4833 1.8597 33.7984C1.57359 33.1136 1.46454 32.3549 1.54459 31.606L4.53232 3.65485C4.60112 3.0114 4.80744 2.39507 5.1343 1.85654C5.46118 1.31814 5.89927 0.872983 6.41255 0.557576C6.92584 0.242311 7.49966 0.0657612 8.08684 0.0427201C8.67401 0.0196795 9.25778 0.150668 9.79011 0.424792L32.9131 12.3335C33.531 12.6534 34.057 13.155 34.4332 13.7832C34.8095 14.4113 35.0213 15.1416 35.0456 15.8939C35.0699 16.6462 34.9057 17.3914 34.571 18.0474C34.2361 18.7035 33.7438 19.245 33.1481 19.6126Z" fill="#FB6908"/>
<path d="M4.44415 4.47258L2.95471 18.406L7.69561 35.2538L19.5212 27.9874L28.9547 11.6927C29.1604 11.3333 29.3142 10.9408 29.4105 10.5293L18.5041 4.91217L4.44415 4.47258Z" fill="#001A49"/>
<path d="M64.92 27.7883L64.8675 18.0559L60.1456 25.9782H57.8371L53.1414 18.3182V27.7883H48.3408V9.42525H52.6168L59.0701 20.0234L65.366 9.42525H69.6419L69.6944 27.7883H64.92Z" fill="black"/>
<path d="M80.2689 28.0244C78.7474 28.0244 77.3746 27.7096 76.1504 27.08C74.9262 26.4504 73.9643 25.576 73.2647 24.4567C72.5827 23.3375 72.2417 22.0695 72.2417 20.6529C72.2417 19.2539 72.5827 17.9947 73.2647 16.8754C73.9643 15.7561 74.9174 14.8904 76.1241 14.2783C77.3483 13.6488 78.7299 13.334 80.2689 13.334C81.8079 13.334 83.1895 13.6488 84.4137 14.2783C85.638 14.8904 86.5911 15.7561 87.2731 16.8754C87.9552 17.9772 88.2962 19.2364 88.2962 20.6529C88.2962 22.0695 87.9552 23.3375 87.2731 24.4567C86.5911 25.576 85.638 26.4504 84.4137 27.08C83.1895 27.7096 81.8079 28.0244 80.2689 28.0244ZM80.2689 24.0632C81.1434 24.0632 81.8604 23.7659 82.42 23.1713C82.9797 22.5592 83.2595 21.7198 83.2595 20.6529C83.2595 19.6036 82.9797 18.7817 82.42 18.1871C81.8604 17.5924 81.1434 17.2951 80.2689 17.2951C79.3945 17.2951 78.6775 17.5924 78.1178 18.1871C77.5582 18.7817 77.2784 19.6036 77.2784 20.6529C77.2784 21.7198 77.5582 22.5592 78.1178 23.1713C78.6775 23.7659 79.3945 24.0632 80.2689 24.0632Z" fill="black"/>
<path d="M97.7405 28.0244C96.219 28.0244 94.8461 27.7096 93.6219 27.08C92.3977 26.4504 91.4358 25.576 90.7363 24.4567C90.0542 23.3375 89.7132 22.0695 89.7132 20.6529C89.7132 19.2539 90.0542 17.9947 90.7363 16.8754C91.4358 15.7561 92.389 14.8904 93.5957 14.2783C94.8199 13.6488 96.2015 13.334 97.7405 13.334C99.2795 13.334 100.661 13.6488 101.885 14.2783C103.109 14.8904 104.063 15.7561 104.745 16.8754C105.427 17.9772 105.768 19.2364 105.768 20.6529C105.768 22.0695 105.427 23.3375 104.745 24.4567C104.063 25.576 103.109 26.4504 101.885 27.08C100.661 27.7096 99.2795 28.0244 97.7405 28.0244ZM97.7405 24.0632C98.6149 24.0632 99.332 23.7659 99.8916 23.1713C100.451 22.5592 100.731 21.7198 100.731 20.6529C100.731 19.6036 100.451 18.7817 99.8916 18.1871C99.332 17.5924 98.6149 17.2951 97.7405 17.2951C96.8661 17.2951 96.149 17.5924 95.5894 18.1871C95.0297 18.7817 94.7499 19.6036 94.7499 20.6529C94.7499 21.7198 95.0297 22.5592 95.5894 23.1713C96.149 23.7659 96.8661 24.0632 97.7405 24.0632Z" fill="black"/>
<path d="M117.337 13.334C119.103 13.334 120.52 13.8586 121.587 14.9079C122.671 15.9573 123.213 17.54 123.213 19.6561V27.7883H118.229V20.4693C118.229 18.5281 117.451 17.5575 115.894 17.5575C115.037 17.5575 114.346 17.8373 113.822 18.3969C113.315 18.9566 113.061 19.796 113.061 20.9153V27.7883H108.077V13.5701H112.825V15.1178C113.384 14.5407 114.049 14.1035 114.819 13.8062C115.588 13.4914 116.427 13.334 117.337 13.334Z" fill="black"/>
<path d="M136.154 27.2112C135.734 27.4735 135.218 27.6746 134.606 27.8145C134.011 27.9544 133.373 28.0244 132.691 28.0244C130.837 28.0244 129.412 27.5697 128.415 26.6603C127.418 25.7509 126.92 24.3955 126.92 22.5942V17.8198H124.847V14.0947H126.92V10.3959H131.904V14.0947H135.157V17.8198H131.904V22.5417C131.904 23.0489 132.035 23.4511 132.297 23.7484C132.577 24.0283 132.944 24.1682 133.399 24.1682C133.976 24.1682 134.483 24.0195 134.921 23.7222L136.154 27.2112Z" fill="black"/>
<path d="M144.801 28.0244C143.279 28.0244 141.907 27.7096 140.682 27.08C139.458 26.4504 138.496 25.576 137.797 24.4567C137.115 23.3375 136.774 22.0695 136.774 20.6529C136.774 19.2539 137.115 17.9947 137.797 16.8754C138.496 15.7561 139.449 14.8904 140.656 14.2783C141.88 13.6488 143.262 13.334 144.801 13.334C146.34 13.334 147.722 13.6488 148.946 14.2783C150.17 14.8904 151.123 15.7561 151.805 16.8754C152.487 17.9772 152.828 19.2364 152.828 20.6529C152.828 22.0695 152.487 23.3375 151.805 24.4567C151.123 25.576 150.17 26.4504 148.946 27.08C147.722 27.7096 146.34 28.0244 144.801 28.0244ZM144.801 24.0632C145.675 24.0632 146.392 23.7659 146.952 23.1713C147.512 22.5592 147.792 21.7198 147.792 20.6529C147.792 19.6036 147.512 18.7817 146.952 18.1871C146.392 17.5924 145.675 17.2951 144.801 17.2951C143.927 17.2951 143.209 17.5924 142.65 18.1871C142.09 18.7817 141.81 19.6036 141.81 20.6529C141.81 21.7198 142.09 22.5592 142.65 23.1713C143.209 23.7659 143.927 24.0632 144.801 24.0632Z" fill="black"/>
<path d="M172.844 9.42525V27.7883H168.568L160.462 18.0034V27.7883H155.373V9.42525H159.649L167.755 19.2101V9.42525H172.844Z" fill="black"/>
</svg>
