<svg width="24" height="24" viewBox="0 0 24 24" fill="none" xmlns="http://www.w3.org/2000/svg">
<path fill-rule="evenodd" clip-rule="evenodd" d="M7.33037 2.0004H16.6694C20.0704 2.0004 21.9904 3.9294 22.0004 7.3304V16.6704C22.0004 20.0704 20.0704 22.0004 16.6694 22.0004H7.33037C3.92937 22.0004 2.00037 20.0704 2.00037 16.6704V7.3304C2.00037 3.9294 3.92937 2.0004 7.33037 2.0004ZM12.0494 17.8604C12.4804 17.8604 12.8394 17.5404 12.8794 17.1104V6.9204C12.9194 6.6104 12.7704 6.2994 12.5004 6.1304C12.2194 5.9604 11.8794 5.9604 11.6104 6.1304C11.3394 6.2994 11.1904 6.6104 11.2194 6.9204V17.1104C11.2704 17.5404 11.6294 17.8604 12.0494 17.8604ZM16.6504 17.8604C17.0704 17.8604 17.4294 17.5404 17.4804 17.1104V13.8304C17.5094 13.5094 17.3604 13.2104 17.0894 13.0404C16.8204 12.8704 16.4804 12.8704 16.2004 13.0404C15.9294 13.2104 15.7804 13.5094 15.8204 13.8304V17.1104C15.8604 17.5404 16.2194 17.8604 16.6504 17.8604ZM8.21937 17.1104C8.17937 17.5404 7.82037 17.8604 7.38937 17.8604C6.95937 17.8604 6.59937 17.5404 6.56037 17.1104V10.2004C6.53037 9.8894 6.67937 9.5804 6.95037 9.4104C7.21937 9.2404 7.56037 9.2404 7.83037 9.4104C8.09937 9.5804 8.25037 9.8894 8.21937 10.2004V17.1104Z" fill="#B7B7B7"/>
</svg>
