<svg width="24" height="24" viewBox="0 0 24 24" fill="none" xmlns="http://www.w3.org/2000/svg">
<path fill-rule="evenodd" clip-rule="evenodd" d="M13.4499 4.8802H16.5199C20.2099 4.8802 22.0099 6.8502 21.9999 10.8902V15.7602C21.9999 19.6202 19.6199 22.0002 15.7499 22.0002H8.23988C4.38988 22.0002 1.99988 19.6202 1.99988 15.7502V8.2402C1.99988 4.1002 3.83988 2.0002 7.46988 2.0002H9.04988C9.98088 1.9902 10.8499 2.4202 11.4199 3.1502L12.2999 4.3202C12.5799 4.6702 12.9999 4.8802 13.4499 4.8802ZM7.36988 15.2902H16.6299C17.0399 15.2902 17.3699 14.9502 17.3699 14.5402C17.3699 14.1202 17.0399 13.7902 16.6299 13.7902H7.36988C6.94988 13.7902 6.61988 14.1202 6.61988 14.5402C6.61988 14.9502 6.94988 15.2902 7.36988 15.2902Z" fill="#B7B7B7"/>
</svg>
