<svg width="50" height="50" viewBox="0 0 50 50" fill="none" xmlns="http://www.w3.org/2000/svg">
<circle cx="25" cy="25" r="25" fill="#FB6908"/>
<path d="M30.9185 27.3201C30.6595 27.5711 30.5405 27.9341 30.5995 28.2901L31.4885 33.2101C31.5635 33.6271 31.3875 34.0491 31.0385 34.2901C30.6965 34.5401 30.2415 34.5701 29.8685 34.3701L25.4395 32.0601C25.2855 31.9781 25.1145 31.9341 24.9395 31.9291H24.6685C24.5745 31.9431 24.4825 31.9731 24.3985 32.0191L19.9685 34.3401C19.7495 34.4501 19.5015 34.4891 19.2585 34.4501C18.6665 34.3381 18.2715 33.7741 18.3685 33.1791L19.2585 28.2591C19.3175 27.9001 19.1985 27.5351 18.9395 27.2801L15.3285 23.7801C15.0265 23.4871 14.9215 23.0471 15.0595 22.6501C15.1935 22.2541 15.5355 21.9651 15.9485 21.9001L20.9185 21.1791C21.2965 21.1401 21.6285 20.9101 21.7985 20.5701L23.9885 16.0801C24.0405 15.9801 24.1075 15.8881 24.1885 15.8101L24.2785 15.7401C24.3255 15.6881 24.3795 15.6451 24.4395 15.6101L24.5485 15.5701L24.7185 15.5001H25.1395C25.5155 15.5391 25.8465 15.7641 26.0195 16.1001L28.2385 20.5701C28.3985 20.8971 28.7095 21.1241 29.0685 21.1791L34.0385 21.9001C34.4585 21.9601 34.8095 22.2501 34.9485 22.6501C35.0795 23.0511 34.9665 23.4911 34.6585 23.7801L30.9185 27.3201Z" fill="white"/>
</svg>
